<mxfile host="Electron" modified="2024-11-11T18:19:17.759Z" agent="Mozilla/5.0 (Windows NT 10.0; Win64; x64) AppleWebKit/537.36 (KHTML, like Gecko) draw.io/24.4.8 Chrome/124.0.6367.207 Electron/30.0.6 Safari/537.36" etag="TXiHPWSbXOMPl6c_cJy7" version="24.4.8" type="device" pages="2">
  <diagram name="SM_state" id="5Je8jk1WZabmp8_tnEg2">
    <mxGraphModel dx="3151" dy="1840" grid="1" gridSize="10" guides="1" tooltips="1" connect="1" arrows="1" fold="1" page="1" pageScale="1" pageWidth="2336" pageHeight="1654" math="0" shadow="0">
      <root>
        <mxCell id="0" />
        <mxCell id="1" parent="0" />
        <mxCell id="GUe62itFoDVuDsvPMNMn-6" style="edgeStyle=orthogonalEdgeStyle;rounded=0;orthogonalLoop=1;jettySize=auto;html=1;exitX=0.5;exitY=1;exitDx=0;exitDy=0;entryX=0.5;entryY=0;entryDx=0;entryDy=0;" parent="1" source="GUe62itFoDVuDsvPMNMn-4" target="GUe62itFoDVuDsvPMNMn-5" edge="1">
          <mxGeometry relative="1" as="geometry" />
        </mxCell>
        <mxCell id="GUe62itFoDVuDsvPMNMn-4" value="INIT" style="ellipse;whiteSpace=wrap;html=1;aspect=fixed;fontSize=30;" parent="1" vertex="1">
          <mxGeometry x="950" y="70" width="120" height="120" as="geometry" />
        </mxCell>
        <mxCell id="GUe62itFoDVuDsvPMNMn-8" value="Réception&lt;div style=&quot;font-size: 17px;&quot;&gt;consigne&lt;/div&gt;" style="edgeStyle=orthogonalEdgeStyle;rounded=0;orthogonalLoop=1;jettySize=auto;html=1;exitX=0.5;exitY=1;exitDx=0;exitDy=0;entryX=0.5;entryY=0;entryDx=0;entryDy=0;fontSize=17;" parent="1" source="GUe62itFoDVuDsvPMNMn-5" target="GUe62itFoDVuDsvPMNMn-7" edge="1">
          <mxGeometry relative="1" as="geometry" />
        </mxCell>
        <mxCell id="GUe62itFoDVuDsvPMNMn-5" value="Attente&lt;div&gt;Consigne&lt;/div&gt;" style="ellipse;whiteSpace=wrap;html=1;aspect=fixed;fontSize=24;" parent="1" vertex="1">
          <mxGeometry x="950" y="340" width="120" height="120" as="geometry" />
        </mxCell>
        <mxCell id="GUe62itFoDVuDsvPMNMn-10" value="Ordre&lt;div style=&quot;font-size: 17px;&quot;&gt;ouverture&lt;/div&gt;" style="edgeStyle=orthogonalEdgeStyle;rounded=0;orthogonalLoop=1;jettySize=auto;html=1;exitX=1;exitY=0.5;exitDx=0;exitDy=0;entryX=0.5;entryY=0;entryDx=0;entryDy=0;fontSize=17;" parent="1" source="GUe62itFoDVuDsvPMNMn-7" target="GUe62itFoDVuDsvPMNMn-9" edge="1">
          <mxGeometry x="0.4" relative="1" as="geometry">
            <mxPoint as="offset" />
          </mxGeometry>
        </mxCell>
        <mxCell id="GUe62itFoDVuDsvPMNMn-12" value="Attente&lt;div style=&quot;font-size: 17px;&quot;&gt;Fermeture&lt;/div&gt;" style="edgeStyle=orthogonalEdgeStyle;rounded=0;orthogonalLoop=1;jettySize=auto;html=1;exitX=0;exitY=0.5;exitDx=0;exitDy=0;entryX=0.5;entryY=0;entryDx=0;entryDy=0;fontSize=17;" parent="1" source="GUe62itFoDVuDsvPMNMn-7" target="GUe62itFoDVuDsvPMNMn-11" edge="1">
          <mxGeometry x="0.3684" relative="1" as="geometry">
            <mxPoint as="offset" />
          </mxGeometry>
        </mxCell>
        <mxCell id="GUe62itFoDVuDsvPMNMn-7" value="Action" style="ellipse;whiteSpace=wrap;html=1;aspect=fixed;fontSize=24;" parent="1" vertex="1">
          <mxGeometry x="950" y="610" width="120" height="120" as="geometry" />
        </mxCell>
        <mxCell id="GUe62itFoDVuDsvPMNMn-13" value="Signal&lt;div style=&quot;font-size: 17px;&quot;&gt;ouverture&lt;/div&gt;" style="edgeStyle=orthogonalEdgeStyle;rounded=0;orthogonalLoop=1;jettySize=auto;html=1;exitX=0.5;exitY=1;exitDx=0;exitDy=0;entryX=1;entryY=0.5;entryDx=0;entryDy=0;fontSize=17;" parent="1" source="GUe62itFoDVuDsvPMNMn-9" target="GUe62itFoDVuDsvPMNMn-15" edge="1">
          <mxGeometry x="-0.4736" relative="1" as="geometry">
            <mxPoint as="offset" />
          </mxGeometry>
        </mxCell>
        <mxCell id="GUe62itFoDVuDsvPMNMn-18" value="TimeOut" style="edgeStyle=orthogonalEdgeStyle;rounded=0;orthogonalLoop=1;jettySize=auto;html=1;exitX=0;exitY=0.5;exitDx=0;exitDy=0;entryX=1;entryY=0;entryDx=0;entryDy=0;" parent="1" source="GUe62itFoDVuDsvPMNMn-9" target="GUe62itFoDVuDsvPMNMn-15" edge="1">
          <mxGeometry x="0.3943" y="-2" relative="1" as="geometry">
            <mxPoint as="offset" />
          </mxGeometry>
        </mxCell>
        <UserObject label="Attente&lt;div&gt;ouverture&lt;/div&gt;" link="data:page/id,vlwQhzT6pzIGxLyiay3K" id="GUe62itFoDVuDsvPMNMn-9">
          <mxCell style="ellipse;whiteSpace=wrap;html=1;aspect=fixed;fontSize=24;" parent="1" vertex="1">
            <mxGeometry x="1190" y="890" width="120" height="120" as="geometry" />
          </mxCell>
        </UserObject>
        <mxCell id="GUe62itFoDVuDsvPMNMn-14" value="Signal&lt;div style=&quot;font-size: 17px;&quot;&gt;fermeture&lt;/div&gt;" style="edgeStyle=orthogonalEdgeStyle;rounded=0;orthogonalLoop=1;jettySize=auto;html=1;exitX=0.5;exitY=1;exitDx=0;exitDy=0;entryX=0;entryY=0.5;entryDx=0;entryDy=0;fontSize=17;" parent="1" source="GUe62itFoDVuDsvPMNMn-11" target="GUe62itFoDVuDsvPMNMn-15" edge="1">
          <mxGeometry x="-0.4445" relative="1" as="geometry">
            <mxPoint as="offset" />
          </mxGeometry>
        </mxCell>
        <mxCell id="GUe62itFoDVuDsvPMNMn-17" value="TimeOut" style="edgeStyle=orthogonalEdgeStyle;rounded=0;orthogonalLoop=1;jettySize=auto;html=1;exitX=1;exitY=0.5;exitDx=0;exitDy=0;entryX=0;entryY=0;entryDx=0;entryDy=0;" parent="1" source="GUe62itFoDVuDsvPMNMn-11" target="GUe62itFoDVuDsvPMNMn-15" edge="1">
          <mxGeometry x="0.3581" y="2" relative="1" as="geometry">
            <mxPoint as="offset" />
          </mxGeometry>
        </mxCell>
        <mxCell id="GUe62itFoDVuDsvPMNMn-11" value="Attente&lt;div&gt;fermeture&lt;/div&gt;" style="ellipse;whiteSpace=wrap;html=1;aspect=fixed;fontSize=24;" parent="1" vertex="1">
          <mxGeometry x="730" y="890" width="120" height="120" as="geometry" />
        </mxCell>
        <mxCell id="GUe62itFoDVuDsvPMNMn-16" value="Message&lt;div style=&quot;font-size: 17px;&quot;&gt;envoyé&lt;/div&gt;" style="edgeStyle=orthogonalEdgeStyle;rounded=0;orthogonalLoop=1;jettySize=auto;html=1;exitX=0.5;exitY=1;exitDx=0;exitDy=0;entryX=1;entryY=0.5;entryDx=0;entryDy=0;fontSize=17;" parent="1" source="GUe62itFoDVuDsvPMNMn-15" target="GUe62itFoDVuDsvPMNMn-5" edge="1">
          <mxGeometry relative="1" as="geometry">
            <Array as="points">
              <mxPoint x="1010" y="1330" />
              <mxPoint x="1430" y="1330" />
              <mxPoint x="1430" y="400" />
            </Array>
          </mxGeometry>
        </mxCell>
        <mxCell id="GUe62itFoDVuDsvPMNMn-15" value="Envoi&lt;div&gt;Etat radio&lt;/div&gt;" style="ellipse;whiteSpace=wrap;html=1;aspect=fixed;fontSize=24;" parent="1" vertex="1">
          <mxGeometry x="950" y="1150" width="120" height="120" as="geometry" />
        </mxCell>
      </root>
    </mxGraphModel>
  </diagram>
  <diagram id="vlwQhzT6pzIGxLyiay3K" name="manage_door">
    <mxGraphModel dx="1891" dy="1104" grid="1" gridSize="10" guides="1" tooltips="1" connect="1" arrows="1" fold="1" page="1" pageScale="1" pageWidth="2336" pageHeight="1654" math="0" shadow="0">
      <root>
        <mxCell id="0" />
        <mxCell id="1" parent="0" />
        <mxCell id="5BEQS-aMTPo55RCicIPY-16" value="Lire état porte" style="rounded=0;whiteSpace=wrap;html=1;fontSize=15;" parent="1" vertex="1">
          <mxGeometry x="662.5" y="510" width="120" height="60" as="geometry" />
        </mxCell>
        <mxCell id="5BEQS-aMTPo55RCicIPY-17" value="" style="endArrow=classic;html=1;rounded=0;exitX=0.5;exitY=1;exitDx=0;exitDy=0;entryX=0.5;entryY=0;entryDx=0;entryDy=0;" parent="1" source="5BEQS-aMTPo55RCicIPY-16" edge="1" target="5BEQS-aMTPo55RCicIPY-22">
          <mxGeometry width="50" height="50" relative="1" as="geometry">
            <mxPoint x="1370" y="920" as="sourcePoint" />
            <mxPoint x="720" y="640.0000000000001" as="targetPoint" />
          </mxGeometry>
        </mxCell>
        <mxCell id="5BEQS-aMTPo55RCicIPY-19" value="oui" style="endArrow=classic;html=1;rounded=0;exitX=0;exitY=0.5;exitDx=0;exitDy=0;entryX=0.5;entryY=0;entryDx=0;entryDy=0;" parent="1" source="5BEQS-aMTPo55RCicIPY-22" edge="1">
          <mxGeometry x="0.2" width="50" height="50" relative="1" as="geometry">
            <mxPoint x="660" y="700" as="sourcePoint" />
            <mxPoint x="540" y="880" as="targetPoint" />
            <Array as="points">
              <mxPoint x="540" y="695" />
            </Array>
            <mxPoint as="offset" />
          </mxGeometry>
        </mxCell>
        <mxCell id="5BEQS-aMTPo55RCicIPY-21" value="non" style="endArrow=classic;html=1;rounded=0;exitX=1;exitY=0.5;exitDx=0;exitDy=0;entryX=0.5;entryY=0;entryDx=0;entryDy=0;" parent="1" source="5BEQS-aMTPo55RCicIPY-22" edge="1">
          <mxGeometry x="0.2" width="50" height="50" relative="1" as="geometry">
            <mxPoint x="780" y="700" as="sourcePoint" />
            <mxPoint x="900" y="880" as="targetPoint" />
            <Array as="points">
              <mxPoint x="900" y="695" />
            </Array>
            <mxPoint as="offset" />
          </mxGeometry>
        </mxCell>
        <mxCell id="5BEQS-aMTPo55RCicIPY-22" value="Etat porte = consigne ?" style="rhombus;whiteSpace=wrap;html=1;fontSize=15;" parent="1" vertex="1">
          <mxGeometry x="665" y="640" width="115" height="110" as="geometry" />
        </mxCell>
        <mxCell id="5BEQS-aMTPo55RCicIPY-23" value="&lt;span style=&quot;font-size: 13px;&quot;&gt;Retourner&lt;/span&gt;&lt;div style=&quot;font-size: 13px;&quot;&gt;SM_WAIT_OPEN&lt;/div&gt;" style="rounded=0;whiteSpace=wrap;html=1;fontSize=13;" parent="1" vertex="1">
          <mxGeometry x="360" y="1060" width="120" height="60" as="geometry" />
        </mxCell>
        <mxCell id="5BEQS-aMTPo55RCicIPY-31" style="edgeStyle=orthogonalEdgeStyle;rounded=0;orthogonalLoop=1;jettySize=auto;html=1;exitX=0.5;exitY=1;exitDx=0;exitDy=0;entryX=0.5;entryY=0;entryDx=0;entryDy=0;" parent="1" source="5BEQS-aMTPo55RCicIPY-24" target="5BEQS-aMTPo55RCicIPY-25" edge="1">
          <mxGeometry relative="1" as="geometry" />
        </mxCell>
        <mxCell id="5BEQS-aMTPo55RCicIPY-24" value="&lt;span style=&quot;font-size: 15px;&quot;&gt;Faire impulsion&lt;/span&gt;" style="rounded=0;whiteSpace=wrap;html=1;fontSize=15;" parent="1" vertex="1">
          <mxGeometry x="840" y="1060" width="120" height="60" as="geometry" />
        </mxCell>
        <mxCell id="5BEQS-aMTPo55RCicIPY-25" value="Lancer Timeout" style="rounded=0;whiteSpace=wrap;html=1;fontSize=15;" parent="1" vertex="1">
          <mxGeometry x="840" y="1240" width="120" height="60" as="geometry" />
        </mxCell>
        <mxCell id="5BEQS-aMTPo55RCicIPY-26" value="Etat = ouvert ?" style="rhombus;whiteSpace=wrap;html=1;fontSize=15;" parent="1" vertex="1">
          <mxGeometry x="480" y="880" width="120" height="110" as="geometry" />
        </mxCell>
        <mxCell id="5BEQS-aMTPo55RCicIPY-27" value="oui" style="endArrow=classic;html=1;rounded=0;entryX=0.5;entryY=0;entryDx=0;entryDy=0;exitX=0;exitY=0.5;exitDx=0;exitDy=0;" parent="1" source="5BEQS-aMTPo55RCicIPY-26" target="5BEQS-aMTPo55RCicIPY-23" edge="1">
          <mxGeometry width="50" height="50" relative="1" as="geometry">
            <mxPoint x="620" y="980" as="sourcePoint" />
            <mxPoint x="670" y="930" as="targetPoint" />
            <Array as="points">
              <mxPoint x="420" y="935" />
            </Array>
          </mxGeometry>
        </mxCell>
        <mxCell id="5BEQS-aMTPo55RCicIPY-28" value="&lt;span style=&quot;font-size: 13px;&quot;&gt;Retourner&lt;/span&gt;&lt;div style=&quot;font-size: 13px;&quot;&gt;SM_WAIT_CLOSE&lt;/div&gt;" style="rounded=0;whiteSpace=wrap;html=1;fontSize=13;" parent="1" vertex="1">
          <mxGeometry x="600" y="1060" width="120" height="60" as="geometry" />
        </mxCell>
        <mxCell id="5BEQS-aMTPo55RCicIPY-29" value="non" style="endArrow=classic;html=1;rounded=0;entryX=0.5;entryY=0;entryDx=0;entryDy=0;exitX=1;exitY=0.5;exitDx=0;exitDy=0;" parent="1" source="5BEQS-aMTPo55RCicIPY-26" target="5BEQS-aMTPo55RCicIPY-28" edge="1">
          <mxGeometry width="50" height="50" relative="1" as="geometry">
            <mxPoint x="620" y="980" as="sourcePoint" />
            <mxPoint x="670" y="930" as="targetPoint" />
            <Array as="points">
              <mxPoint x="660" y="935" />
            </Array>
          </mxGeometry>
        </mxCell>
        <mxCell id="5BEQS-aMTPo55RCicIPY-30" value="Nota :&amp;nbsp;&lt;div&gt;-&amp;nbsp; 1ere impulsion peut stopper la porte si elle était en mouvement ou à l&#39;arrêt entre 2 positions.&lt;/div&gt;&lt;div&gt;-&amp;nbsp; 2eme impulsion peut renvoyer la porte dans on état d&#39;origne (pas celui de la consigne)&lt;/div&gt;&lt;div&gt;- 3eme impulsion doit envoyer la porte dans le bon état&lt;/div&gt;" style="text;strokeColor=none;align=left;fillColor=none;html=1;verticalAlign=middle;whiteSpace=wrap;rounded=0;" parent="1" vertex="1">
          <mxGeometry x="1000" y="1050" width="370" height="100" as="geometry" />
        </mxCell>
        <mxCell id="E03_QdtBCzNifKbTkmbx-1" style="edgeStyle=orthogonalEdgeStyle;rounded=0;orthogonalLoop=1;jettySize=auto;html=1;exitX=0.5;exitY=1;exitDx=0;exitDy=0;entryX=0.5;entryY=0;entryDx=0;entryDy=0;" parent="1" target="E03_QdtBCzNifKbTkmbx-2" edge="1">
          <mxGeometry relative="1" as="geometry">
            <mxPoint x="900" y="1300" as="sourcePoint" />
          </mxGeometry>
        </mxCell>
        <mxCell id="E03_QdtBCzNifKbTkmbx-2" value="Incrémenter Cpt Impls" style="rounded=0;whiteSpace=wrap;html=1;fontSize=15;" parent="1" vertex="1">
          <mxGeometry x="840" y="1420" width="120" height="60" as="geometry" />
        </mxCell>
        <mxCell id="E03_QdtBCzNifKbTkmbx-4" value="non" style="edgeStyle=orthogonalEdgeStyle;rounded=0;orthogonalLoop=1;jettySize=auto;html=1;exitX=0.5;exitY=1;exitDx=0;exitDy=0;entryX=0.5;entryY=0;entryDx=0;entryDy=0;" parent="1" source="E03_QdtBCzNifKbTkmbx-3" target="5BEQS-aMTPo55RCicIPY-24" edge="1">
          <mxGeometry relative="1" as="geometry" />
        </mxCell>
        <mxCell id="E03_QdtBCzNifKbTkmbx-5" value="oui" style="edgeStyle=orthogonalEdgeStyle;rounded=0;orthogonalLoop=1;jettySize=auto;html=1;exitX=1;exitY=0.5;exitDx=0;exitDy=0;" parent="1" source="E03_QdtBCzNifKbTkmbx-3" edge="1">
          <mxGeometry relative="1" as="geometry">
            <mxPoint x="1080" y="934.8095238095239" as="targetPoint" />
          </mxGeometry>
        </mxCell>
        <mxCell id="E03_QdtBCzNifKbTkmbx-3" value="Cpt &amp;gt; 2" style="rhombus;whiteSpace=wrap;html=1;fontSize=15;" parent="1" vertex="1">
          <mxGeometry x="840" y="880" width="120" height="110" as="geometry" />
        </mxCell>
        <mxCell id="wpxeCS4Aeo6a3oUN_WZI-1" value="&lt;span style=&quot;font-size: 13px;&quot;&gt;Retourner&lt;/span&gt;&lt;div style=&quot;font-size: 13px;&quot;&gt;SM_ERROR&lt;/div&gt;" style="rounded=0;whiteSpace=wrap;html=1;fontSize=13;" parent="1" vertex="1">
          <mxGeometry x="1080" y="905" width="120" height="60" as="geometry" />
        </mxCell>
        <mxCell id="hkc5PuBqrqfAhDeX_buD-2" value="Oui" style="edgeStyle=orthogonalEdgeStyle;rounded=0;orthogonalLoop=1;jettySize=auto;html=1;exitX=0.5;exitY=1;exitDx=0;exitDy=0;entryX=0.5;entryY=0;entryDx=0;entryDy=0;" edge="1" parent="1" source="hkc5PuBqrqfAhDeX_buD-1" target="5BEQS-aMTPo55RCicIPY-16">
          <mxGeometry relative="1" as="geometry" />
        </mxCell>
        <mxCell id="hkc5PuBqrqfAhDeX_buD-3" value="Non" style="edgeStyle=orthogonalEdgeStyle;rounded=0;orthogonalLoop=1;jettySize=auto;html=1;exitX=1;exitY=0.5;exitDx=0;exitDy=0;" edge="1" parent="1" source="hkc5PuBqrqfAhDeX_buD-1">
          <mxGeometry relative="1" as="geometry">
            <mxPoint x="879.9999999999998" y="374.7647058823529" as="targetPoint" />
          </mxGeometry>
        </mxCell>
        <mxCell id="hkc5PuBqrqfAhDeX_buD-1" value="TimeOut ?" style="rhombus;whiteSpace=wrap;html=1;fontSize=15;" vertex="1" parent="1">
          <mxGeometry x="665" y="320" width="115" height="110" as="geometry" />
        </mxCell>
        <mxCell id="hkc5PuBqrqfAhDeX_buD-4" value="Sortir" style="rounded=0;whiteSpace=wrap;html=1;fontSize=15;" vertex="1" parent="1">
          <mxGeometry x="880" y="345" width="120" height="60" as="geometry" />
        </mxCell>
      </root>
    </mxGraphModel>
  </diagram>
</mxfile>
